<svg xmlns:xlink="http://www.w3.org/1999/xlink" xmlns="http://www.w3.org/2000/svg" width="18" height="17" viewBox="0 0 17 16" fill="none">
          <path fill-rule="evenodd" clip-rule="evenodd" d="M7.17375 2.39015H15.5334C16.0239 2.39015 16.4216 2.78782 16.4216 3.27835C16.4216 3.76888 16.0239 4.16654 15.5334 4.16654H7.17375C6.80707 5.20032 5.81982 5.94292 4.66194 5.94292C3.50406 5.94292 2.51678 5.20032 2.15013 4.16654H0.896005C0.405474 4.16654 0.0078125 3.76888 0.0078125 3.27835C0.0078125 2.78782 0.405474 2.39015 0.896005 2.39015H2.15013C2.51681 1.35637 3.50406 0.61377 4.66194 0.61377C5.81982 0.61377 6.80707 1.35637 7.17375 2.39015ZM3.77465 3.27873C3.77465 3.76848 4.17309 4.16693 4.66284 4.16693C5.15259 4.16693 5.55103 3.76848 5.55103 3.27873C5.55103 2.78898 5.15259 2.39054 4.66284 2.39054C4.17309 2.39054 3.77465 2.78898 3.77465 3.27873ZM7.17375 12.338H15.5334C16.0239 12.338 16.4216 12.7357 16.4216 13.2262C16.4216 13.7168 16.0239 14.1144 15.5334 14.1144H7.17375C6.80707 15.1482 5.81982 15.8908 4.66194 15.8908C3.50406 15.8908 2.51678 15.1482 2.15013 14.1144H0.896005C0.405474 14.1144 0.0078125 13.7168 0.0078125 13.2262C0.0078125 12.7357 0.405474 12.338 0.896005 12.338H2.15013C2.51681 11.3043 3.50406 10.5617 4.66194 10.5617C5.81982 10.5617 6.8071 11.3043 7.17375 12.338ZM3.77465 13.2264C3.77465 13.7161 4.17309 14.1146 4.66284 14.1146C5.15259 14.1146 5.55103 13.7161 5.55103 13.2264C5.55103 12.7366 5.15259 12.3382 4.66284 12.3382C4.17309 12.3382 3.77465 12.7366 3.77465 13.2264ZM15.5334 7.36416H14.2793C13.9126 6.33037 12.9254 5.58777 11.7675 5.58777C10.6096 5.58777 9.62235 6.33037 9.25567 7.36416H0.896005C0.405474 7.36416 0.0078125 7.76182 0.0078125 8.25235C0.0078125 8.74288 0.405474 9.14054 0.896005 9.14054H9.25567C9.62232 10.1743 10.6096 10.9169 11.7675 10.9169C12.9254 10.9169 13.9126 10.1743 14.2793 9.14054H15.5334C16.0239 9.14054 16.4216 8.74288 16.4216 8.25235C16.4216 7.76182 16.0239 7.36416 15.5334 7.36416ZM11.7683 9.14069C11.2786 9.14069 10.8801 8.74225 10.8801 8.2525C10.8801 7.76275 11.2786 7.36431 11.7683 7.36431C12.2581 7.36431 12.6565 7.76275 12.6565 8.2525C12.6565 8.74225 12.2581 9.14069 11.7683 9.14069Z" fill="#1D262D"></path>
        </svg>